<svg xmlns="http://www.w3.org/2000/svg" style="display: none;">
  <symbol id="moon-icon" viewBox="0 0 24 24">
    <path d="M21 12.79A9 9 0 1 1 11.21 3 A7 7 0 0 0 21 12.79z" stroke="currentColor" fill="none"
      stroke-width="2" stroke-linecap="round" stroke-linejoin="round" />
  </symbol>

  <symbol id="sun-icon" viewBox="0 0 24 24">
    <circle cx="12" cy="12" r="5" stroke="currentColor" stroke-width="2" fill="currentColor" />
    <line x1="12" y1="3" x2="12" y2="1" stroke="currentColor" stroke-width="2" stroke-linecap="round" />
    <line x1="12" y1="23" x2="12" y2="21" stroke="currentColor" stroke-width="2" stroke-linecap="round" />
    <line x1="21" y1="12" x2="23" y2="12" stroke="currentColor" stroke-width="2" stroke-linecap="round" />
    <line x1="1" y1="12" x2="3" y2="12" stroke="currentColor" stroke-width="2" stroke-linecap="round" />
    <line x1="18.36" y1="18.36" x2="19.78" y2="19.78" stroke="currentColor" stroke-width="2" stroke-linecap="round" />
    <line x1="4.22" y1="4.22" x2="5.64" y2="5.64" stroke="currentColor" stroke-width="2" stroke-linecap="round" />
    <line x1="18.36" y1="5.64" x2="19.78" y2="4.22" stroke="currentColor" stroke-width="2" stroke-linecap="round" />
    <line x1="4.22" y1="19.78" x2="5.64" y2="18.36" stroke="currentColor" stroke-width="2" stroke-linecap="round" />
  </symbol>

  <symbol id="tortoise-icon" viewBox="0 0 465.708 465.708">
    <path fill="currentColor" d="M465.708,232.847l-30.725-30.729l0.002-0.002l-32.908-32.909l-24.034-24.037c-5.31-5.375-11.123-9.938-13.577-11.753 c-21.583-15.965-47.113-24.568-74.102-24.568c-26.707,0-52.059,8.333-73.43,24.078c-0.377,0.278-0.763,0.538-1.137,0.821 c-0.021,0.016-0.041,0.032-0.061,0.048c0,0-7.878,6.124-13.057,11.374l-37.903,37.907l-18.633,18.633l0.001,0.001l-19.896,19.898 c-11.074-9.525-25.026-14.735-39.786-14.735c-16.332,0-31.682,6.359-43.222,17.905L0,268.007l43.237,43.225 c11.542,11.548,26.893,17.907,43.224,17.907c16.331,0,31.684-6.359,43.23-17.906l20.579-20.578v66.18h85.09v-12.844 c17.297,8.573,36.144,12.869,54.995,12.869c18.855,0,37.708-4.298,55.01-12.875v12.852h85.09v-77.09 c0-3.526-0.436-6.993-1.283-10.364L465.708,232.847z"/>
  </symbol>

  <symbol id="hare-icon" viewBox="0 0 512 512">
    <path fill="currentColor" d="M443.246,392.214c0.108-2.007,0.362-3.888,0.362-5.995c0.009-18.408-3.916-38.255-13.274-58.816 c-17.912-39.802-47.922-62.199-77.904-76.457l-0.099-0.055l-2.233-1.066l2.017,0.977c-29.865-14.214-60.228-21.872-82.579-32.677 l-0.036-0.028c-14.25-6.988-22.261-16.329-27.578-30.055l-0.018-0.045l-0.036-0.109l-0.154-0.416l-0.063-0.171 c-0.886-2.216-4.919-15.091-4.802-24.287v-0.054v-0.109c-0.008-2.613,0.299-4.945,0.715-6.428l0.018-0.072 c1.375-5.452,6.168-14.169,11.9-24.196l0.018-0.027c5.678-10.172,12.334-22.243,16.113-36.755 c4.539-17.568,6.954-33.238,6.962-46.908c-0.054-11.602-1.609-22.289-6.872-31.62l-0.036-0.063 c-2.712-4.711-6.546-9.078-11.682-12.188c-5.054-3.075-10.796-4.53-16.546-4.566V0.018L237.22,0v0.018 c-0.036,0-0.127,0.009-0.163,0.009V0.018c-0.045,0-0.082,0.009-0.118,0.009c-0.28,0-0.651,0.063-1.292,0.154 c-11.683,0.552-22.532,5.814-33.762,13.816l-0.054,0.036c-13.924,10.154-24.051,23.454-31.628,37.252 c-1.609-3.788-3.12-7.694-5.018-11.112l-0.009-0.018c-5.18-9.25-11.248-17.134-18.427-23.183h-0.009 c-7.016-5.895-15.796-10.389-25.923-10.56V6.366l-0.67-0.019c-11.31,0.009-21.411,6.094-28.01,15.064 c-6.564,8.77-10.634,19.956-13.247,33.834v0.027c-1.14,6.176-1.637,12.351-1.637,18.4v0.046c0.218,29.847,11.284,56.9,19.006,72.57 c-10.209,7.921-24.486,20.787-35.987,38.617l0.561-0.868l-0.57,0.878c-14.675,22.884-20.57,41.23-20.57,57.297 c-0.018,14.313,4.792,25.19,7.948,32.569c5.072,12.279,14.096,20.272,23.174,24.359v0.018c6.447,2.884,12.179,4.521,17.134,6.058 l-0.37,2.496l10.47,1.41c0.778,0.362,1.375,0.642,1.61,0.795l0.018,0.028c3.472,2.169,6.781,4.945,10.461,10.28 c3.644,5.326,7.514,13.31,11.13,25.426l0.019,0.045c3.643,12.27,11.049,32.415,17.595,52.976v0.027 c3.237,10.082,6.221,20.299,8.354,29.232c2.152,8.879,3.39,16.673,3.346,20.815v0.199v0.054l-0.073,1.565 c-3.552,3.825-6.329,8.02-7.866,12.26c-1.953,5.335-2.577,10.551-2.586,15.144l0.01,0.299v-0.064 c0.027,6.474,1.14,12.071,2.233,16.203c0.561,2.062,1.121,3.77,1.555,5.009l0.552,1.456h0.008l0.136,0.406l1.808,4.368l2.649,6.356 h64.36h4.982h153.077l4.087-2.559l0.063-0.044c6.312-4.014,16.438-12.433,27.415-24.621c5.732,2.324,11.98,3.743,18.607,3.743 c28.03-0.009,50.698-22.704,50.707-50.698C472.288,417.532"/>
  </symbol>

  <symbol id="refresh-icon" viewBox="0 0 16 16">
    <path d="M7.991 2.5a6 6 0 1 0 4.472 10.2l.79.8A7 7 0 1 1 8 1v1.5z" />
    <path d="M8 4v3l2.5 1.5.5-1-2-1V4H8z" />
  </symbol>

  <symbol id="shuffle-icon" viewBox="0 0 16 16">
    <path d="M12.493 2.5a.5.5 0 0 1 .354.853L11.201 5H14.5a.5.5 0 0 1 0 1h-4a.5.5 0 0 1-.354-.854L12.285 2.646a.5.5 0 0 1 .208-.146ZM2 9.5a.5.5 0 0 1 .5-.5h2.293l1.853-1.854a.5.5 0 1 1 .708.708L5.707 9h2.043l2.146-2.146a.5.5 0 1 1 .708.708L8.457 9.707a.5.5 0 0 1-.354.146H2.5a.5.5 0 0 1-.5-.5Zm10.853.146-1.646 1.647.793.792a.5.5 0 1 1-.708.708l-1.146-1.147.853-.853h-2.5a.5.5 0 0 1 0-1h3.793l-2.146-2.147a.5.5 0 1 1 .708-.708l3 3a.5.5 0 0 1 0 .708Z" />
  </symbol>

  <symbol id="clock-icon" viewBox="0 0 16 16">
    <path d="M8 3.5a.5.5 0 0 1 .5.5v3h2.5a.5.5 0 0 1 0 1H8A.5.5 0 0 1 7.5 8V4a.5.5 0 0 1 .5-.5Z" />
    <path d="M8 16A8 8 0 1 0 8 0a8 8 0 0 0 0 16Zm0-1A7 7 0 1 1 8 1a7 7 0 0 1 0 14Z" />
  </symbol>

  <symbol id="clipboard-icon" viewBox="0 0 16 16">
    <path d="M10 1.5v1h1A1.5 1.5 0 0 1 12.5 4v9A1.5 1.5 0 0 1 11 14.5H5A1.5 1.5 0 0 1 3.5 13V4A1.5 1.5 0 0 1 5 2.5h1v-1a.5.5 0 0 1 .5-.5h2a.5.5 0 0 1 .5.5Z" />
    <path d="M9.5 1a.5.5 0 0 1 .5.5v1a.5.5 0 0 1-.5.5H9v-.5a.5.5 0 0 0-.5-.5H7.5a.5.5 0 0 0-.5.5V3h-.5a.5.5 0 0 1-.5-.5v-1a.5.5 0 0 1 .5-.5h3Z" />
  </symbol>
</svg>
